<svg xmlns="http://www.w3.org/2000/svg" xmlns:xlink="http://www.w3.org/1999/xlink" viewBox="0 0 171.63 171.63"><defs><style>.cls-1{fill:url(#linear-gradient);}.cls-2{fill:url(#linear-gradient-2);}.cls-3,.cls-7{fill:#8345bf;}.cls-4{fill:url(#linear-gradient-3);}.cls-5{fill:#914cc1;}.cls-6{fill:#fff;}.cls-7{opacity:0;}</style><linearGradient id="linear-gradient" x1="140.09" y1="69.99" x2="1.08" y2="90.67" gradientUnits="userSpaceOnUse"><stop offset="0.19" stop-color="#fd7450"/><stop offset="0.29" stop-color="#fd804e"/><stop offset="0.49" stop-color="#fc904d"/><stop offset="0.71" stop-color="#fc9a4b"/><stop offset="1" stop-color="#fc9d4b"/></linearGradient><linearGradient id="linear-gradient-2" x1="107.59" y1="101.15" x2="31.42" y2="81.12" gradientUnits="userSpaceOnUse"><stop offset="0.05" stop-color="#fd7450"/><stop offset="0.37" stop-color="#fc894d"/><stop offset="0.72" stop-color="#fc984c"/><stop offset="1" stop-color="#fc9d4b"/></linearGradient><linearGradient id="linear-gradient-3" x1="122.28" y1="54.08" x2="25.66" y2="84.98" gradientUnits="userSpaceOnUse"><stop offset="0.11" stop-color="#fd7450"/><stop offset="0.31" stop-color="#fd804f"/><stop offset="0.84" stop-color="#fc9d4b"/></linearGradient></defs><g id="Layer_2" data-name="Layer 2"><g id="Layer_1-2" data-name="Layer 1"><path class="cls-1" d="M140.82,80.33a72,72,0,0,1-10.11,36.94,70.3,70.3,0,0,1-44.85,32.81c-.79.19-1.58.35-2.38.5a69.48,69.48,0,0,1-12.9,1.2A70.33,70.33,0,0,1,60.26,151C28,146.2,3,119.12.54,85.64c-.13-1.75-.2-3.52-.2-5.31C.34,47.58,22,20,51.53,11.53A70,70,0,0,1,78.36,9.31a68.45,68.45,0,0,1,7.49,1.27C117.3,17.66,140.82,46.2,140.82,80.33Z"/><path class="cls-2" d="M140.82,80.33a72,72,0,0,1-10.11,36.94,70.3,70.3,0,0,1-44.85,32.81c-.79.19-1.58.35-2.38.5a69.48,69.48,0,0,1-12.9,1.2q-2.77,0-5.49-.21l-19.46,5.8L23.57,164,29,141.24l.67-2.83A71.63,71.63,0,0,1,.54,85.64c-.13-1.75-.2-3.52-.2-5.31C.34,47.58,22,20,51.53,11.53A70,70,0,0,1,78.36,9.31a68.45,68.45,0,0,1,7.49,1.27C117.3,17.66,140.82,46.2,140.82,80.33Z"/><path class="cls-3" d="M171.4,80.33a72.55,72.55,0,0,1-1.48,14.61c-5.75,28.24-27.9,50.37-55.86,55.64a67.31,67.31,0,0,1-8.81,1.08,77.89,77.89,0,0,0,38.51-39.35A79.07,79.07,0,0,0,105.25,9c1.24.07,2.47.18,3.69.31C144.08,13.25,171.4,43.54,171.4,80.33Z"/><path class="cls-4" d="M140.82,80a72,72,0,0,1-10.11,36.94,138.84,138.84,0,0,1-41.49,6.19c-39.17,0-73-15.47-88.68-37.82C.41,83.55.34,81.78.34,80,.34,47.24,22,19.64,51.53,11.19a69.29,69.29,0,0,1,19-2.65,69.87,69.87,0,0,1,15.27,1.7C117.3,17.32,140.82,45.86,140.82,80Z"/><path class="cls-5" d="M171.4,80.33a72.55,72.55,0,0,1-1.48,14.61,91,91,0,0,1-26.16,17.37A79.07,79.07,0,0,0,105.25,9c1.24.07,2.47.18,3.69.31C144.08,13.25,171.4,43.54,171.4,80.33Z"/><rect class="cls-6" x="36.12" y="45.62" width="53" height="44" rx="11.59"/><path class="cls-6" d="M101.66,83.09l-7.25-3.6c-1.94-1-3.29-4.23-3.29-7.39V63.82c0-3.16,1.35-6.42,3.29-7.38l7.25-3.61c4.14-2,8.46.86,8.46,7V76.05C110.12,82.23,105.8,85.14,101.66,83.09Z"/><rect class="cls-7" width="171.63" height="171.63"/></g></g></svg>